<?xml version="1.0" encoding="UTF-8"?>
<svg xmlns="http://www.w3.org/2000/svg" xmlns:xlink="http://www.w3.org/1999/xlink" width="320px" height="322px" viewBox="0 0 320 322" version="1.1">
<g id="surface1">
<path style=" stroke:none;fill-rule:nonzero;fill:rgb(22%,25%,30%);fill-opacity:1;" d="M 149.292969 3.089844 C 131.664062 4.308594 112.6875 9.136719 97.410156 16.273438 C 95.582031 17.144531 93.972656 17.839844 93.839844 17.839844 C 93.535156 17.839844 84.65625 22.886719 79.871094 25.847656 C 69.03125 32.460938 62.371094 37.683594 52.449219 47.429688 C 40 59.65625 35.253906 65.707031 25.855469 81.457031 C 16.191406 97.558594 11.230469 110.308594 6.964844 129.671875 C 4.046875 142.941406 3.003906 163.742188 4.570312 177.316406 C 6.179688 191.632812 11.316406 211.648438 15.667969 220.699219 C 17.367188 224.269531 17.0625 222.964844 14.625 216.480469 C 13.535156 213.609375 12.664062 211.039062 12.621094 210.734375 C 12.621094 210.125 18.0625 208.253906 18.714844 208.648438 C 18.933594 208.777344 19.152344 209.125 19.152344 209.34375 C 19.152344 209.605469 20.238281 212.519531 21.589844 215.871094 C 22.9375 219.222656 23.984375 222.050781 23.894531 222.09375 C 23.808594 222.179688 22.460938 222.875 20.9375 223.617188 C 18.324219 224.878906 18.105469 224.921875 17.539062 224.179688 C 16.976562 223.527344 16.976562 223.527344 17.234375 224.53125 C 17.933594 227.226562 25.984375 241.933594 29.554688 247.113281 C 30.988281 249.160156 37.171875 257.773438 38.652344 259.777344 C 44.960938 268.304688 59.847656 282.488281 69.421875 289.148438 C 70.425781 289.84375 72.207031 291.105469 73.339844 291.886719 C 76.082031 293.804688 87.3125 300.15625 91.402344 302.113281 C 100.980469 306.683594 105.941406 308.945312 106.421875 308.945312 C 106.726562 308.945312 108.683594 309.554688 110.816406 310.25 C 120.609375 313.601562 136.625 316.734375 148.640625 317.605469 C 159.738281 318.433594 176.671875 317.472656 187.59375 315.429688 C 201.828125 312.730469 215.363281 308.164062 228.203125 301.722656 C 229.816406 300.894531 231.121094 300.15625 231.121094 300.027344 C 231.121094 299.808594 225.070312 302.636719 224.679688 303.027344 C 224.113281 303.636719 223.632812 303.160156 222.808594 301.289062 C 222.285156 300.199219 221.804688 299.371094 221.71875 299.503906 C 221.589844 299.589844 221.851562 300.375 222.242188 301.242188 C 222.632812 302.070312 222.851562 303.070312 222.71875 303.417969 C 222.589844 303.722656 219.5 305.203125 215.800781 306.683594 C 209.75 309.078125 209.097656 309.292969 208.617188 308.640625 C 208.097656 307.988281 208.050781 307.988281 208.050781 308.816406 C 208.050781 309.382812 207.703125 309.773438 207.09375 309.945312 C 206.527344 310.035156 203.742188 310.816406 200.871094 311.644531 C 192.992188 313.949219 193.296875 313.90625 192.816406 312.773438 C 192.46875 311.816406 192.425781 311.816406 192.425781 312.949219 C 192.382812 313.644531 192.207031 314.167969 192.035156 314.167969 C 191.816406 314.167969 189.511719 314.558594 186.898438 314.996094 C 184.289062 315.472656 181.066406 315.996094 179.71875 316.125 L 177.324219 316.429688 L 176.84375 313.253906 C 176.539062 311.511719 176.410156 309.945312 176.496094 309.773438 C 176.625 309.640625 177.933594 309.335938 179.414062 309.207031 C 180.9375 309.03125 183.722656 308.597656 185.636719 308.292969 C 191.730469 307.25 191.164062 307.160156 191.773438 309.597656 L 192.296875 311.773438 L 192.253906 309.46875 L 192.164062 307.117188 L 198.257812 305.378906 C 201.609375 304.421875 204.789062 303.550781 205.265625 303.417969 C 206.09375 303.246094 206.3125 303.507812 206.964844 305.464844 C 207.355469 306.683594 207.792969 307.597656 207.921875 307.464844 C 208.050781 307.335938 207.835938 306.335938 207.441406 305.203125 C 207.050781 304.027344 206.878906 302.984375 207.050781 302.808594 C 207.269531 302.636719 208.183594 302.289062 209.140625 301.984375 C 210.097656 301.679688 212.882812 300.589844 215.320312 299.546875 C 217.757812 298.503906 219.933594 297.632812 220.195312 297.632812 C 220.414062 297.632812 220.847656 297.980469 221.109375 298.371094 C 221.5 299.023438 221.5 298.980469 221.328125 298.066406 C 221.109375 297.066406 221.414062 296.804688 226.375 294.28125 C 229.292969 292.847656 231.902344 291.714844 232.164062 291.800781 C 232.425781 291.933594 233.296875 293.152344 234.035156 294.542969 L 235.472656 297.109375 L 233.515625 298.285156 C 230.773438 299.851562 231.078125 300.15625 233.863281 298.589844 C 249.140625 290.105469 260.542969 281.445312 272.253906 269.480469 C 284.136719 257.25 296.976562 236.496094 304.15625 217.785156 C 308.507812 206.429688 311.46875 195.679688 312.949219 186.019531 C 313.425781 182.667969 313.949219 179.363281 314.035156 178.710938 C 314.167969 177.96875 314.082031 177.578125 313.820312 177.753906 C 313.558594 177.882812 313.382812 178.667969 313.382812 179.40625 C 313.382812 181.058594 311.859375 190.457031 311.425781 191.546875 C 311.078125 192.460938 310.945312 192.460938 307.507812 191.71875 C 304.503906 191.113281 304.679688 191.675781 305.722656 185.0625 C 306.117188 182.582031 306.375 179.929688 306.375 179.1875 C 306.332031 178.363281 306.160156 178.972656 305.941406 180.582031 C 304.027344 194.332031 300.804688 205.730469 294.363281 221.398438 C 294.234375 221.746094 294.363281 221.832031 294.796875 221.65625 C 295.710938 221.308594 300.761719 223.617188 300.761719 224.398438 C 300.761719 224.746094 299.457031 227.574219 297.890625 230.664062 L 295.015625 236.320312 L 292.578125 234.929688 C 291.1875 234.191406 289.925781 233.40625 289.707031 233.234375 C 289.53125 233.015625 290.445312 230.621094 291.796875 227.878906 C 295.363281 220.613281 294.753906 221.09375 290.835938 228.664062 C 286.398438 237.191406 286.222656 237.496094 280.957031 245.417969 C 270.945312 260.472656 258.976562 272.480469 241.785156 284.796875 C 234.472656 290.015625 221.546875 296.632812 208.921875 301.546875 C 205.484375 302.855469 194.082031 306.117188 189.988281 306.945312 C 179.324219 309.078125 163.351562 310.554688 156.257812 310.078125 C 154.472656 309.945312 150.945312 309.730469 148.421875 309.597656 C 143.851562 309.335938 130.664062 307.511719 128.183594 306.769531 C 127.488281 306.550781 125.703125 306.074219 124.265625 305.726562 C 109.421875 301.941406 94.886719 295.804688 82.480469 288.058594 C 56.105469 271.613281 35.125 246.851562 23.113281 218.003906 C 19.804688 210.039062 18.324219 205.730469 16.410156 198.117188 C 12.882812 184.367188 11.011719 167.046875 11.75 154.691406 C 12.316406 145.25 14.101562 133.28125 15.929688 126.1875 C 16.757812 122.96875 17.714844 119.3125 18.019531 118.140625 C 19.414062 112.832031 25.507812 97.820312 28.378906 92.683594 C 37.691406 76.105469 44.789062 66.664062 57.890625 53.523438 C 70.683594 40.683594 85.179688 30.589844 100.980469 23.496094 C 120.828125 14.578125 138.671875 10.746094 160.175781 10.835938 C 176.277344 10.878906 190.511719 13.226562 205.660156 18.40625 C 214.144531 21.277344 218.019531 22.929688 225.417969 26.671875 C 245.222656 36.726562 263.285156 51.78125 276.214844 68.96875 C 280.695312 74.972656 286.136719 83.15625 287.964844 86.679688 C 288.355469 87.460938 288.792969 87.855469 288.878906 87.59375 C 289.183594 86.765625 294.277344 83.808594 294.667969 84.242188 C 294.84375 84.460938 296.234375 87.070312 297.714844 89.984375 C 299.976562 94.46875 300.328125 95.46875 299.847656 95.902344 C 299.0625 96.601562 294.710938 98.558594 294.539062 98.296875 C 294.449219 98.210938 293.230469 95.902344 291.839844 93.207031 C 290.445312 90.507812 289.226562 88.417969 289.140625 88.507812 C 289.054688 88.59375 290.054688 90.855469 291.402344 93.554688 C 296.625 103.996094 300.71875 115.3125 303.632812 127.496094 C 304.15625 129.757812 304.636719 131.105469 304.636719 130.453125 C 304.679688 129.234375 305.113281 129.015625 309.335938 128.148438 C 311.164062 127.800781 311.25 127.972656 312.511719 136.371094 C 313.296875 141.722656 313.339844 142.898438 312.863281 143.203125 C 312.339844 143.550781 311.46875 143.636719 307.550781 143.769531 L 306.332031 143.8125 L 306.636719 147.074219 C 306.8125 148.859375 307.117188 154.039062 307.289062 158.605469 C 307.421875 163.132812 307.59375 165.960938 307.640625 164.785156 L 307.726562 162.742188 L 314.253906 162.742188 L 314.210938 167.613281 C 314.210938 170.3125 314.082031 173.3125 313.90625 174.273438 L 313.558594 176.011719 L 310.773438 175.882812 C 309.207031 175.792969 307.59375 175.621094 307.203125 175.535156 C 306.59375 175.359375 306.421875 175.535156 306.421875 176.316406 C 306.421875 177.054688 306.550781 177.144531 306.8125 176.707031 C 307.117188 176.230469 307.8125 176.1875 310.597656 176.535156 C 312.511719 176.796875 314.082031 176.925781 314.167969 176.882812 C 314.210938 176.839844 314.472656 173.054688 314.734375 168.441406 C 315.515625 155.691406 314.558594 143.679688 311.597656 128.148438 C 309.988281 119.878906 307.335938 111.046875 303.070312 100.082031 C 299.0625 89.769531 290.316406 74.496094 282.566406 64.183594 C 273.777344 52.519531 261.457031 40.554688 249.621094 32.199219 C 245.003906 28.9375 236.519531 23.496094 236.082031 23.496094 C 235.953125 23.496094 235.082031 22.976562 234.082031 22.367188 C 233.078125 21.714844 229.945312 20.058594 227.117188 18.625 C 203.613281 6.960938 175.320312 1.304688 149.292969 3.089844 Z M 156.605469 6.789062 L 156.734375 9.921875 L 153.777344 10.183594 C 152.164062 10.3125 149.335938 10.53125 147.507812 10.703125 L 144.15625 10.964844 L 143.894531 9.746094 C 143.765625 9.050781 143.632812 7.484375 143.546875 6.308594 L 143.417969 4.132812 L 146.464844 3.871094 C 148.160156 3.742188 151.078125 3.65625 152.992188 3.65625 L 156.472656 3.699219 Z M 171.492188 3.871094 L 174.320312 4.132812 L 174.1875 6.527344 C 173.972656 10.835938 173.972656 10.835938 171.359375 10.617188 C 170.140625 10.53125 167.398438 10.355469 165.308594 10.183594 L 161.480469 9.921875 L 161.480469 3.480469 L 165.09375 3.523438 C 167.050781 3.566406 169.925781 3.699219 171.492188 3.871094 Z M 142.808594 5.089844 C 142.808594 5.527344 142.980469 6.960938 143.15625 8.3125 L 143.460938 10.792969 L 140.152344 11.3125 C 138.367188 11.574219 135.058594 12.140625 132.839844 12.574219 L 128.835938 13.359375 L 128.355469 11.574219 C 128.050781 10.574219 127.835938 9.09375 127.792969 8.265625 C 127.746094 6.789062 127.746094 6.789062 130.359375 6.179688 C 133.492188 5.484375 139.890625 4.4375 141.589844 4.394531 C 142.414062 4.351562 142.765625 4.570312 142.808594 5.089844 Z M 183.503906 5.4375 C 187.03125 6.046875 190.03125 6.613281 190.121094 6.746094 C 190.425781 7.050781 189.46875 12.226562 189.03125 12.664062 C 188.859375 12.835938 186.421875 12.664062 183.679688 12.183594 C 180.9375 11.75 177.757812 11.269531 176.625 11.097656 C 174.582031 10.835938 174.539062 10.792969 174.539062 9.226562 C 174.539062 8.355469 174.667969 6.875 174.796875 5.960938 C 175.148438 4.003906 174.972656 4.003906 183.503906 5.4375 Z M 127.441406 10.007812 C 127.746094 11.53125 127.921875 13.011719 127.835938 13.273438 C 127.703125 13.488281 126.484375 13.96875 125.09375 14.273438 C 123.65625 14.621094 120.738281 15.449219 118.5625 16.144531 C 116.386719 16.839844 114.386719 17.40625 114.167969 17.40625 C 113.90625 17.40625 113.382812 16.273438 112.992188 14.882812 C 112.558594 13.53125 112.121094 12.140625 111.992188 11.878906 C 111.902344 11.53125 112.296875 11.140625 112.992188 10.878906 C 115.605469 9.878906 125.613281 7.050781 126.222656 7.09375 C 126.660156 7.179688 127.050781 8.136719 127.441406 10.007812 Z M 199.652344 8.964844 C 202.699219 9.789062 205.398438 10.660156 205.613281 10.878906 C 206.050781 11.3125 204.699219 16.40625 204.089844 16.796875 C 203.875 16.925781 202.089844 16.535156 200.128906 15.925781 C 198.128906 15.359375 195.082031 14.535156 193.339844 14.097656 C 191.597656 13.707031 190.121094 13.226562 189.988281 13.054688 C 189.902344 12.921875 190.121094 11.445312 190.511719 9.835938 L 191.164062 6.875 L 192.644531 7.179688 C 193.425781 7.308594 196.605469 8.136719 199.652344 8.964844 Z M 214.972656 13.925781 C 218.148438 15.1875 220.847656 16.449219 220.980469 16.753906 C 221.152344 17.230469 219.0625 22.628906 218.714844 22.628906 C 218.671875 22.628906 215.929688 21.539062 212.621094 20.234375 C 209.359375 18.929688 206.398438 17.839844 206.09375 17.839844 C 204.789062 17.839844 204.832031 17.273438 206.574219 11.792969 C 206.832031 10.964844 208.226562 11.3125 214.972656 13.925781 Z M 112.296875 14.621094 C 112.816406 16.1875 113.121094 17.578125 112.992188 17.710938 C 112.644531 18.058594 101.457031 22.671875 100.328125 22.929688 C 99.585938 23.105469 99.238281 22.628906 98.195312 20.234375 C 97.496094 18.625 97.105469 17.1875 97.324219 17.015625 C 98.148438 16.273438 109.46875 11.792969 110.640625 11.792969 C 111.164062 11.75 111.644531 12.574219 112.296875 14.621094 Z M 228.640625 20.191406 C 231.46875 21.625 233.730469 23.105469 233.730469 23.453125 C 233.730469 24.238281 231.121094 28.804688 230.730469 28.632812 C 230.597656 28.542969 227.988281 27.238281 224.941406 25.761719 L 219.367188 22.976562 L 220.066406 21.410156 C 220.457031 20.496094 220.980469 19.144531 221.242188 18.363281 C 221.804688 16.621094 221.761719 16.621094 228.640625 20.191406 Z M 97.585938 20.453125 L 98.757812 23.0625 L 97.585938 23.890625 C 96.929688 24.324219 95.320312 25.238281 94.015625 25.933594 C 92.710938 26.585938 91.140625 27.457031 90.53125 27.847656 C 88.140625 29.503906 87.746094 29.371094 86.050781 26.542969 L 84.484375 23.933594 L 86.136719 22.886719 C 88.445312 21.410156 95.453125 17.839844 95.972656 17.839844 C 96.234375 17.882812 96.929688 19.015625 97.585938 20.453125 Z M 245.003906 29.632812 C 247.136719 31.023438 249.097656 32.460938 249.359375 32.808594 C 249.707031 33.246094 249.402344 33.941406 248.050781 35.8125 C 247.09375 37.203125 246.179688 38.292969 246.050781 38.292969 C 245.875 38.292969 243.480469 36.769531 240.738281 34.941406 C 237.953125 33.113281 235.648438 31.589844 235.605469 31.546875 C 235.515625 31.503906 236.167969 30.199219 237.039062 28.589844 L 238.5625 25.671875 L 239.871094 26.371094 C 240.566406 26.71875 242.917969 28.195312 245.003906 29.632812 Z M 81.785156 29.109375 C 82.523438 30.15625 83.132812 31.328125 83.132812 31.722656 C 83.089844 32.460938 73.296875 39.335938 72.730469 38.988281 C 72.207031 38.640625 69.074219 33.941406 69.25 33.722656 C 70.292969 32.679688 79.914062 26.628906 80.128906 26.890625 C 80.261719 27.066406 81.042969 28.066406 81.785156 29.109375 Z M 256.148438 37.945312 C 257.84375 39.292969 259.976562 41.078125 260.9375 41.902344 L 262.675781 43.425781 L 260.542969 45.863281 C 259.414062 47.210938 258.324219 48.300781 258.148438 48.300781 C 257.976562 48.300781 257.453125 47.863281 256.976562 47.386719 C 256.539062 46.863281 254.058594 44.820312 251.492188 42.773438 C 248.878906 40.773438 246.789062 38.988281 246.789062 38.902344 C 246.789062 38.769531 247.574219 37.507812 248.574219 36.074219 L 250.316406 33.460938 L 251.707031 34.460938 C 252.492188 34.984375 254.492188 36.550781 256.148438 37.945312 Z M 70.164062 36.855469 C 70.988281 38.03125 71.773438 39.164062 71.949219 39.421875 C 72.121094 39.726562 70.730469 41.164062 68.421875 43.035156 C 66.332031 44.730469 63.808594 46.820312 62.765625 47.734375 L 60.890625 49.34375 L 58.628906 47.039062 L 56.367188 44.777344 L 58.757812 42.554688 C 62.632812 38.945312 67.640625 34.855469 68.203125 34.8125 C 68.464844 34.8125 69.335938 35.722656 70.164062 36.855469 Z M 269.164062 49.648438 C 271.6875 52.304688 273.777344 54.652344 273.777344 54.871094 C 273.777344 55.394531 269.859375 58.960938 269.292969 58.960938 C 268.988281 58.960938 266.550781 56.65625 263.808594 53.871094 C 258.324219 48.167969 258.5 48.820312 261.546875 45.601562 C 262.675781 44.339844 263.199219 44.078125 263.765625 44.382812 C 264.199219 44.601562 266.59375 46.996094 269.164062 49.648438 Z M 54.84375 55.175781 L 49.574219 60.484375 L 47.398438 58.4375 C 46.222656 57.351562 45.265625 56.261719 45.265625 56.046875 C 45.265625 55.828125 47.574219 53.304688 50.359375 50.433594 L 55.453125 45.210938 L 60.152344 49.910156 Z M 277.648438 59.089844 C 280.085938 62.007812 283.175781 66.054688 283.917969 67.316406 C 284.222656 67.792969 279.957031 71.363281 279.085938 71.363281 C 278.867188 71.363281 277.214844 69.449219 275.386719 67.097656 C 273.558594 64.792969 271.511719 62.222656 270.859375 61.398438 L 269.683594 59.960938 L 271.949219 57.785156 C 273.210938 56.609375 274.386719 55.699219 274.601562 55.785156 C 274.820312 55.871094 276.214844 57.351562 277.648438 59.089844 Z M 46.964844 59.089844 L 49.269531 61.179688 L 46.527344 64.398438 C 45.003906 66.226562 43.003906 68.792969 42.089844 70.1875 C 41.175781 71.535156 40.347656 72.667969 40.21875 72.667969 C 40 72.667969 37.128906 70.664062 35.558594 69.449219 C 34.777344 68.839844 34.820312 68.75 36.125 66.921875 C 37.78125 64.617188 44.089844 57.089844 44.394531 57.046875 C 44.527344 57.003906 45.660156 57.960938 46.964844 59.089844 Z M 288.050781 73.101562 C 289.835938 75.714844 291.359375 78.238281 291.492188 78.714844 C 291.664062 79.367188 291.097656 79.890625 288.964844 81.152344 C 286.484375 82.589844 286.136719 82.675781 285.746094 82.023438 C 285.527344 81.632812 284.136719 79.5 282.699219 77.324219 C 281.261719 75.105469 279.957031 73.101562 279.78125 72.796875 C 279.566406 72.492188 280.347656 71.578125 281.914062 70.316406 C 283.308594 69.230469 284.527344 68.316406 284.65625 68.316406 C 284.789062 68.316406 286.3125 70.492188 288.050781 73.101562 Z M 36.996094 71.449219 C 38.433594 72.449219 39.609375 73.363281 39.609375 73.496094 C 39.609375 73.667969 38.867188 74.710938 37.953125 75.929688 C 37.082031 77.105469 35.558594 79.414062 34.601562 81.023438 C 33.644531 82.632812 32.730469 83.980469 32.558594 83.980469 C 32.078125 83.980469 26.984375 80.847656 26.984375 80.542969 C 26.984375 80.238281 34.082031 69.664062 34.296875 69.621094 C 34.386719 69.621094 35.605469 70.449219 36.996094 71.449219 Z M 27.464844 86.851562 C 28.859375 87.722656 30.03125 88.507812 30.03125 88.59375 C 30.03125 88.636719 29.25 90.074219 28.292969 91.769531 C 27.335938 93.46875 26.070312 95.949219 25.460938 97.339844 C 24.851562 98.6875 24.242188 99.90625 24.15625 99.992188 C 23.765625 100.386719 18.28125 97.6875 18.28125 97.121094 C 18.28125 96.511719 23.199219 86.898438 24.027344 85.808594 C 24.636719 85.113281 24.546875 85.070312 27.464844 86.851562 Z M 301.414062 97.90625 C 302.242188 99.472656 305.855469 109.089844 306.070312 110.261719 C 306.160156 110.914062 305.636719 111.265625 303.375 112.089844 C 301.804688 112.65625 300.457031 113.136719 300.328125 113.136719 C 300.195312 113.136719 299.324219 111.046875 298.367188 108.4375 C 297.453125 105.867188 296.234375 102.734375 295.710938 101.472656 L 294.710938 99.167969 L 297.410156 97.90625 C 298.890625 97.210938 300.238281 96.644531 300.414062 96.644531 C 300.585938 96.601562 301.023438 97.210938 301.414062 97.90625 Z M 20.890625 99.644531 C 22.328125 100.386719 23.503906 101.125 23.503906 101.300781 C 23.503906 101.515625 22.414062 104.257812 21.109375 107.433594 C 19.804688 110.613281 18.714844 113.484375 18.714844 113.789062 C 18.714844 114.136719 18.542969 114.484375 18.367188 114.613281 C 18.0625 114.789062 12.882812 113.265625 12.230469 112.832031 C 11.75 112.527344 17.367188 98.339844 17.976562 98.339844 C 18.148438 98.339844 19.457031 98.949219 20.890625 99.644531 Z M 306.8125 112.613281 C 307.335938 113.570312 310.207031 123.621094 310.554688 125.753906 L 310.816406 127.277344 L 307.988281 127.84375 C 306.421875 128.105469 304.941406 128.363281 304.722656 128.363281 C 304.503906 128.363281 304.070312 127.320312 303.808594 126.058594 C 303.503906 124.839844 302.589844 121.578125 301.761719 118.835938 C 300.980469 116.136719 300.328125 113.832031 300.414062 113.789062 C 300.585938 113.65625 305.722656 111.917969 306.070312 111.875 C 306.246094 111.828125 306.59375 112.179688 306.8125 112.613281 Z M 15.363281 114.703125 C 17.539062 115.355469 17.890625 115.617188 17.714844 116.398438 C 16.976562 119.707031 14.710938 128.320312 14.40625 129.0625 C 14.015625 129.976562 13.929688 129.976562 11.230469 129.367188 C 9.707031 129.015625 8.355469 128.582031 8.183594 128.410156 C 7.835938 128.105469 9.140625 122.359375 10.835938 116.703125 C 11.445312 114.703125 12.011719 113.570312 12.316406 113.699219 C 12.621094 113.789062 13.972656 114.265625 15.363281 114.703125 Z M 13.796875 130.714844 C 13.882812 130.800781 13.492188 134.066406 12.925781 137.980469 L 11.882812 145.117188 L 8.878906 144.988281 C 7.226562 144.898438 5.746094 144.726562 5.570312 144.550781 C 5.398438 144.378906 5.441406 142.855469 5.703125 141.203125 C 6.484375 135.761719 7.488281 129.886719 7.660156 129.625 C 7.792969 129.367188 13.449219 130.367188 13.796875 130.714844 Z M 313.6875 145.117188 C 313.777344 145.597656 313.949219 148.597656 314.125 151.730469 L 314.386719 157.519531 L 311.902344 157.605469 C 310.554688 157.648438 309.117188 157.691406 308.726562 157.691406 C 308.03125 157.738281 307.898438 156.996094 307.464844 151.425781 C 307.203125 147.945312 307.117188 144.988281 307.246094 144.8125 C 307.59375 144.464844 309.207031 144.246094 311.597656 144.246094 C 313.167969 144.246094 313.558594 144.421875 313.6875 145.117188 Z M 9.707031 146.03125 L 11.75 146.292969 L 11.535156 150.511719 C 11.402344 152.820312 11.1875 155.515625 11.054688 156.519531 L 10.835938 158.390625 L 4.222656 158.390625 L 4.484375 153.472656 C 4.65625 150.816406 4.917969 147.859375 5.050781 146.945312 C 5.308594 145.464844 5.441406 145.292969 6.484375 145.507812 C 7.09375 145.640625 8.53125 145.855469 9.707031 146.03125 Z M 10.445312 164.046875 C 10.835938 164.308594 11.097656 165.175781 11.140625 166.351562 C 11.1875 167.398438 11.359375 170.136719 11.535156 172.402344 L 11.839844 176.578125 L 10.578125 176.839844 C 9.925781 176.96875 8.488281 177.101562 7.441406 177.1875 C 5.613281 177.273438 5.484375 177.230469 5.136719 176.011719 C 4.960938 175.273438 4.65625 172.402344 4.527344 169.570312 C 4.265625 165.351562 4.351562 164.308594 4.832031 164.003906 C 5.660156 163.480469 9.621094 163.523438 10.445312 164.046875 Z M 13.101562 184.933594 C 13.753906 188.890625 14.1875 192.242188 14.101562 192.375 C 14.015625 192.546875 12.621094 192.894531 11.011719 193.199219 C 8.707031 193.589844 8.050781 193.589844 7.792969 193.113281 C 7.574219 192.808594 7.398438 192.460938 7.398438 192.328125 C 7.398438 192.199219 6.921875 189.195312 6.355469 185.585938 C 5.789062 182.015625 5.398438 178.839844 5.527344 178.535156 C 5.746094 177.96875 7.574219 177.621094 10.183594 177.710938 L 11.925781 177.753906 Z M 308.292969 192.546875 C 309.726562 192.851562 310.902344 193.199219 310.945312 193.285156 C 311.078125 193.460938 308.988281 201.945312 307.945312 205.515625 C 307.289062 207.820312 307.160156 207.996094 306.117188 207.734375 C 303.328125 206.992188 300.980469 205.949219 301.023438 205.339844 C 301.066406 204.992188 301.804688 202.207031 302.675781 199.074219 C 303.546875 195.984375 304.242188 193.070312 304.242188 192.679688 C 304.242188 191.765625 304.898438 191.71875 308.292969 192.546875 Z M 15.015625 195.027344 C 15.191406 196.070312 16.015625 199.25 16.800781 202.078125 C 17.628906 204.90625 18.195312 207.386719 18.0625 207.515625 C 17.585938 207.996094 12.1875 209.648438 12.011719 209.34375 C 11.359375 208.300781 8.617188 197.8125 8.574219 196.289062 L 8.488281 194.332031 L 10.664062 193.808594 C 14.492188 192.894531 14.667969 192.984375 15.015625 195.027344 Z M 303.851562 207.601562 C 305.375 208.125 306.679688 208.605469 306.769531 208.648438 C 307.074219 208.910156 303.417969 218.828125 302.066406 221.527344 C 301.152344 223.269531 300.804688 223.484375 300.109375 222.832031 C 299.847656 222.660156 298.757812 222.136719 297.628906 221.703125 C 296.453125 221.265625 295.539062 220.742188 295.539062 220.484375 C 295.539062 219.785156 300.5 206.6875 300.804688 206.6875 C 300.9375 206.6875 302.285156 207.125 303.851562 207.601562 Z M 27.464844 228.835938 C 29.03125 231.882812 30.03125 234.320312 29.773438 234.40625 C 29.511719 234.496094 28.292969 235.234375 26.984375 236.0625 L 24.679688 237.539062 L 23.984375 236.582031 C 23.589844 236.0625 22.15625 233.363281 20.804688 230.621094 L 18.324219 225.617188 L 21.242188 224.226562 C 22.851562 223.484375 24.289062 222.964844 24.417969 223.136719 C 24.546875 223.3125 25.941406 225.878906 27.464844 228.835938 Z M 290.054688 239.367188 L 292.535156 240.714844 L 291.359375 242.71875 C 288.878906 247.027344 285.875 251.507812 285.484375 251.507812 C 285.050781 251.507812 280.304688 248.070312 280.304688 247.722656 C 280.304688 247.636719 280.957031 246.546875 281.742188 245.285156 C 282.566406 244.023438 283.917969 241.890625 284.832031 240.5 C 285.703125 239.148438 286.660156 238.019531 287.007812 238.019531 C 287.3125 238.019531 288.660156 238.628906 290.054688 239.367188 Z M 36.429688 244.066406 L 39.957031 249.289062 L 37.433594 251.246094 C 36.039062 252.335938 34.777344 253.25 34.691406 253.25 C 34.386719 253.25 27.507812 243.066406 27.335938 242.371094 C 27.203125 241.847656 31.511719 238.890625 32.425781 238.890625 C 32.6875 238.890625 34.472656 241.238281 36.429688 244.066406 Z M 283.742188 254.421875 C 282.261719 256.554688 276.214844 263.910156 275.648438 264.257812 C 275.472656 264.386719 274.253906 263.519531 272.949219 262.386719 L 270.554688 260.296875 L 272.511719 257.949219 C 273.601562 256.6875 275.691406 254.03125 277.214844 252.03125 L 279.914062 248.460938 L 282.523438 250.421875 L 285.09375 252.421875 Z M 46.050781 257.078125 L 49.664062 261.601562 L 48.660156 262.515625 C 48.097656 262.996094 47.007812 263.996094 46.222656 264.734375 L 44.789062 266.042969 L 43.089844 264.128906 C 42.132812 263.039062 39.957031 260.339844 38.214844 258.121094 C 34.734375 253.597656 34.734375 254.117188 38.300781 251.335938 L 40.261719 249.8125 L 41.347656 251.203125 C 41.957031 251.941406 44.046875 254.597656 46.050781 257.078125 Z M 272.425781 262.910156 C 273.515625 263.953125 274.429688 264.996094 274.429688 265.300781 C 274.429688 265.824219 264.722656 275.875 264.199219 275.875 C 264.027344 275.875 262.980469 274.875 261.804688 273.65625 L 259.71875 271.4375 L 261.632812 269.523438 C 262.675781 268.476562 264.941406 266.171875 266.59375 264.386719 C 268.292969 262.648438 269.816406 261.167969 270.03125 261.125 C 270.25 261.125 271.339844 261.90625 272.425781 262.910156 Z M 60.5 272.785156 C 60.457031 273.265625 56.671875 277.179688 56.191406 277.179688 C 55.972656 277.179688 53.363281 274.832031 50.402344 271.960938 L 45.050781 266.738281 L 47.574219 264.429688 L 50.097656 262.125 L 55.320312 267.304688 C 58.148438 270.175781 60.5 272.613281 60.5 272.785156 Z M 261.71875 278.398438 C 258.671875 281.183594 252.273438 286.320312 251.925781 286.320312 C 251.535156 286.320312 248.097656 281.707031 248.097656 281.183594 C 248.097656 280.921875 248.617188 280.402344 249.316406 279.964844 C 250.488281 279.226562 255.363281 275.265625 257.84375 273.046875 L 259.152344 271.914062 L 261.5 274.222656 L 263.808594 276.527344 Z M 64.460938 275.789062 C 65.984375 277.179688 68.335938 279.050781 69.640625 280.007812 C 70.945312 280.921875 72.207031 281.835938 72.382812 282.011719 C 72.773438 282.316406 69.378906 287.625 68.8125 287.625 C 68.507812 287.625 62.328125 282.75 58.804688 279.703125 L 56.929688 278.09375 L 58.976562 275.703125 C 60.109375 274.351562 61.195312 273.265625 61.371094 273.265625 C 61.546875 273.265625 62.9375 274.394531 64.460938 275.789062 Z M 249.402344 284.273438 C 250.226562 285.492188 250.925781 286.667969 250.925781 286.839844 C 250.925781 287.40625 239.914062 294.890625 239.652344 294.5 C 238.824219 293.410156 236.734375 289.234375 236.867188 288.929688 C 237.039062 288.320312 246.441406 282.054688 247.226562 282.011719 C 247.574219 282.011719 248.574219 283.011719 249.402344 284.273438 Z M 77.78125 285.667969 C 84.613281 290.148438 84.003906 289.320312 82.480469 292.191406 C 81.785156 293.542969 80.957031 294.804688 80.738281 295.023438 C 80.480469 295.238281 78.300781 294.0625 75.210938 292.0625 C 72.425781 290.234375 70.03125 288.582031 69.859375 288.40625 C 69.640625 288.191406 72.992188 282.835938 73.382812 282.835938 C 73.425781 282.835938 75.386719 284.101562 77.78125 285.667969 Z M 94.101562 295.066406 C 97.0625 296.542969 99.542969 297.804688 99.628906 297.894531 C 99.847656 298.109375 97.890625 302.984375 97.324219 303.59375 C 96.976562 303.984375 95.496094 303.464844 91.097656 301.199219 C 87.921875 299.589844 85.308594 298.066406 85.308594 297.761719 C 85.308594 297.457031 85.746094 296.414062 86.3125 295.371094 C 87.746094 292.671875 87.921875 292.410156 88.355469 292.410156 C 88.574219 292.410156 91.1875 293.628906 94.101562 295.066406 Z M 104.113281 299.808594 C 105.636719 300.503906 108.507812 301.679688 110.554688 302.332031 C 112.601562 303.027344 114.210938 303.722656 114.210938 303.898438 C 113.601562 306.640625 112.511719 309.816406 112.121094 309.816406 C 110.773438 309.773438 97.933594 304.726562 97.933594 304.246094 C 97.933594 303.332031 100.371094 298.503906 100.847656 298.503906 C 101.152344 298.503906 102.589844 299.070312 104.113281 299.808594 Z M 122.308594 305.898438 C 125.050781 306.597656 127.660156 307.207031 128.050781 307.207031 C 128.445312 307.207031 128.921875 307.378906 129.054688 307.640625 C 129.359375 308.121094 128.445312 313.339844 127.964844 313.863281 C 127.53125 314.339844 114.386719 311.035156 113.472656 310.25 C 113.296875 310.121094 113.558594 308.640625 114.082031 307.03125 C 115.125 303.636719 114.125 303.769531 122.308594 305.898438 Z M 137.890625 308.988281 C 141.414062 309.46875 144.417969 309.992188 144.59375 310.078125 C 144.765625 310.207031 144.808594 310.816406 144.722656 311.46875 C 144.636719 312.121094 144.417969 313.558594 144.289062 314.691406 C 143.984375 317.039062 145.113281 316.953125 135.058594 315.429688 C 128.097656 314.386719 128.402344 314.644531 129.316406 310.6875 C 129.925781 307.816406 130.097656 307.511719 130.792969 307.816406 C 131.1875 307.945312 134.363281 308.46875 137.890625 308.988281 Z M 153.339844 310.511719 L 157.996094 310.773438 L 157.996094 313.992188 C 157.996094 316.257812 157.824219 317.214844 157.476562 317.257812 C 156.386719 317.386719 151.644531 317.214844 148.335938 316.953125 L 144.941406 316.691406 L 144.941406 314.601562 C 144.941406 313.472656 145.070312 311.90625 145.203125 311.164062 C 145.460938 309.816406 145.59375 309.773438 147.074219 309.992188 C 147.945312 310.121094 150.730469 310.339844 153.339844 310.511719 Z M 176.015625 310.992188 C 176.582031 314.210938 176.714844 316.300781 176.320312 316.515625 C 176.0625 316.691406 172.925781 316.910156 169.316406 317.082031 L 162.785156 317.34375 L 162.785156 310.730469 L 165.09375 310.511719 C 167.53125 310.207031 170.445312 310.035156 173.753906 309.902344 C 175.625 309.816406 175.800781 309.902344 176.015625 310.992188 Z M 176.015625 310.992188 "/>
<path style=" stroke:none;fill-rule:nonzero;fill:rgb(10%,50%,100%);fill-opacity:1;" d="M 163.785156 12.617188 C 161.261719 13.183594 158.519531 15.144531 157.300781 17.230469 C 156.34375 18.886719 156.167969 19.539062 156.34375 21.582031 C 156.605469 24.410156 157.519531 25.542969 159.957031 26.109375 C 163.742188 26.976562 166.703125 24.238281 166.050781 20.453125 C 165.703125 18.277344 163.394531 16.101562 161.394531 16.101562 C 160.21875 16.101562 160.128906 16.011719 160.652344 15.359375 C 161.699219 14.140625 163.960938 13.488281 167.226562 13.488281 C 172.839844 13.488281 174.582031 15.402344 174.886719 21.972656 C 175.058594 26.671875 174.1875 29.9375 171.75 33.59375 C 170.183594 35.984375 169.011719 37.160156 162.917969 42.511719 C 159.433594 45.558594 156.777344 49.257812 155.386719 53 C 154.386719 55.609375 153.382812 61.265625 153.863281 61.703125 C 153.992188 61.832031 154.601562 61.441406 155.167969 60.832031 C 156.996094 58.832031 159.304688 58.832031 164.136719 60.703125 C 173.625 64.445312 179.890625 62.484375 182.371094 55.089844 C 183.375 52 183.242188 49.519531 182.199219 52 C 181.195312 54.261719 179.585938 55.394531 177.019531 55.609375 C 175.148438 55.742188 174.015625 55.523438 170.621094 54.175781 C 164.308594 51.738281 159.695312 52.128906 156.691406 55.347656 C 156.214844 55.871094 155.734375 56.175781 155.605469 56.046875 C 155.167969 55.652344 157.082031 51.085938 158.824219 48.429688 C 161 45.035156 162.566406 43.816406 169.621094 39.988281 C 177.28125 35.855469 181.023438 32.417969 182.15625 28.542969 C 184.375 20.886719 180.023438 14.707031 171.097656 12.792969 C 167.964844 12.140625 165.964844 12.097656 163.785156 12.617188 Z M 163.785156 12.617188 "/>
<path style=" stroke:none;fill-rule:nonzero;fill:rgb(10%,50%,100%);fill-opacity:1;" d="M 145.375 16.578125 C 139.761719 20.363281 137.84375 21.800781 138.105469 22.019531 C 138.238281 22.148438 139.019531 21.886719 139.890625 21.496094 C 141.371094 20.757812 141.457031 20.757812 142.371094 21.582031 L 143.328125 22.410156 L 143.023438 41.335938 C 142.71875 59.789062 142.675781 60.265625 141.804688 61.222656 C 141.285156 61.789062 140.5 62.222656 140.066406 62.222656 C 139.628906 62.222656 139.28125 62.355469 139.28125 62.527344 C 139.28125 62.746094 142.15625 62.921875 145.679688 63.007812 L 152.121094 63.136719 L 151.121094 62.09375 L 150.121094 61.007812 L 150.25 37.246094 C 150.335938 24.195312 150.292969 13.488281 150.164062 13.53125 C 150.03125 13.53125 147.898438 14.925781 145.375 16.578125 Z M 145.375 16.578125 "/>
<path style=" stroke:none;fill-rule:nonzero;fill:rgb(100%,100%,100%);fill-opacity:1;" d="M 216.625 27.804688 C 214.1875 29.808594 209.707031 32.636719 208.921875 32.636719 C 208.660156 32.636719 208.488281 32.894531 208.617188 33.15625 C 208.707031 33.460938 209.097656 33.636719 209.402344 33.550781 C 210.96875 33.070312 212.753906 33.027344 213.015625 33.417969 C 213.144531 33.679688 213.273438 42.511719 213.320312 53.085938 C 213.320312 74.015625 213.320312 74.058594 210.882812 74.667969 C 208.140625 75.367188 210.402344 75.714844 217.410156 75.714844 C 222.199219 75.714844 225.027344 75.539062 225.027344 75.277344 C 225.027344 75.015625 224.59375 74.84375 224.027344 74.84375 C 223.460938 74.84375 222.546875 74.320312 221.9375 73.710938 L 220.890625 72.582031 L 220.675781 49.476562 C 220.457031 26.761719 220.457031 26.324219 219.585938 26.195312 C 219.0625 26.152344 217.84375 26.804688 216.625 27.804688 Z M 216.625 27.804688 "/>
<path style=" stroke:none;fill-rule:nonzero;fill:rgb(100%,100%,100%);fill-opacity:1;" d="M 106.636719 34.203125 C 104.851562 36.027344 102.589844 38.074219 101.675781 38.769531 C 100.023438 39.988281 100.152344 40.554688 101.804688 39.511719 C 103.722656 38.335938 103.851562 38.945312 104.15625 49.039062 C 104.332031 54.261719 104.460938 63.269531 104.460938 69.054688 L 104.460938 79.585938 L 103.15625 80.585938 L 101.894531 81.585938 L 108.160156 81.585938 C 111.597656 81.585938 114.558594 81.414062 114.734375 81.238281 C 114.90625 81.066406 114.777344 80.933594 114.386719 80.933594 C 114.035156 80.933594 113.425781 80.585938 113.035156 80.152344 C 112.253906 79.324219 111.992188 70.363281 111.902344 43.207031 C 111.859375 33.851562 111.773438 32.15625 111.164062 31.589844 C 110.816406 31.199219 110.335938 30.894531 110.207031 30.894531 C 110.03125 30.894531 108.421875 32.375 106.636719 34.203125 Z M 106.636719 34.203125 "/>
<path style=" stroke:none;fill-rule:nonzero;fill:rgb(100%,100%,100%);fill-opacity:1;" d="M 90.011719 34.507812 C 88.183594 36.246094 85.964844 38.074219 85.136719 38.507812 C 84.265625 38.988281 83.570312 39.511719 83.570312 39.726562 C 83.570312 39.902344 84.179688 39.726562 84.960938 39.335938 C 86.269531 38.640625 86.398438 38.640625 87.050781 39.511719 C 87.703125 40.292969 87.835938 42.601562 88.007812 59.699219 C 88.183594 71.015625 88.097656 79.28125 87.878906 79.714844 C 87.660156 80.152344 86.921875 80.761719 86.269531 81.109375 C 85.179688 81.71875 85.613281 81.761719 91.535156 81.804688 C 95.058594 81.804688 97.933594 81.71875 97.933594 81.585938 C 97.933594 81.5 97.453125 80.933594 96.84375 80.324219 L 95.757812 79.238281 L 95.710938 63.226562 C 95.667969 54.433594 95.539062 43.6875 95.363281 39.378906 C 95.058594 29.761719 95.015625 29.761719 90.011719 34.507812 Z M 90.011719 34.507812 "/>
<path style=" stroke:none;fill-rule:nonzero;fill:rgb(100%,100%,100%);fill-opacity:1;" d="M 254.015625 66.96875 C 250.273438 68.492188 247.660156 71.796875 247.660156 74.972656 C 247.660156 78.542969 249.402344 80.5 252.578125 80.5 C 254.320312 80.5 254.886719 80.28125 255.929688 79.238281 C 257.539062 77.671875 257.84375 76.324219 257.234375 74.015625 C 256.671875 71.882812 254.796875 70.492188 252.535156 70.492188 C 251.230469 70.492188 251.1875 70.40625 251.664062 69.621094 C 252.492188 68.316406 255.363281 67.359375 258.757812 67.316406 C 262.199219 67.273438 263.242188 67.707031 264.808594 69.753906 C 266.203125 71.578125 266.726562 74.929688 266.332031 79.5 C 265.855469 84.894531 264.242188 87.855469 258.542969 93.597656 C 252.011719 100.167969 250.316406 102.691406 248.792969 107.914062 C 247.835938 111.308594 247.660156 116.398438 248.53125 116.398438 C 248.878906 116.398438 249.140625 116.179688 249.097656 115.921875 C 248.921875 114.875 250.75 113.875 253.058594 113.65625 C 254.796875 113.527344 256.191406 113.746094 258.671875 114.613281 C 267.03125 117.488281 273.820312 115.136719 275.734375 108.695312 C 276.472656 106.128906 276.605469 103.5625 275.953125 103.5625 C 275.734375 103.5625 275.515625 103.867188 275.515625 104.214844 C 275.515625 105.390625 274.601562 106.871094 273.167969 107.828125 C 271.292969 109.132812 268.769531 109.042969 264.417969 107.609375 C 260.238281 106.261719 255.972656 106.085938 253.882812 107.171875 C 253.101562 107.609375 251.75 108.566406 250.882812 109.347656 L 249.269531 110.742188 L 249.574219 109 C 250.097656 106.042969 252.839844 100.90625 255.234375 98.558594 C 256.453125 97.339844 258.933594 95.46875 260.71875 94.425781 C 267.378906 90.550781 271.6875 86.722656 273.339844 83.285156 C 274.125 81.542969 274.253906 80.628906 274.125 77.890625 C 273.949219 73.539062 272.46875 70.925781 268.988281 68.839844 C 265.855469 67.011719 264.332031 66.574219 259.847656 66.316406 C 256.84375 66.140625 255.757812 66.269531 254.015625 66.96875 Z M 254.015625 66.96875 "/>
<path style=" stroke:none;fill-rule:nonzero;fill:rgb(100%,100%,100%);fill-opacity:1;" d="M 62.371094 79.628906 C 57.976562 80.28125 54.667969 83.023438 52.230469 88.113281 C 50.402344 91.945312 49.621094 95.773438 49.316406 102.214844 C 48.921875 111.046875 50.273438 118.703125 53.1875 123.535156 C 56.191406 128.539062 58.933594 130.539062 62.765625 130.539062 C 65.855469 130.496094 68.117188 129.410156 70.773438 126.539062 C 78.519531 118.3125 80.652344 100.296875 75.300781 88.507812 C 73.90625 85.375 71.207031 82.285156 68.640625 80.804688 C 66.289062 79.457031 65.15625 79.238281 62.371094 79.628906 Z M 66.8125 81.195312 C 67.160156 81.585938 67.945312 82.71875 68.464844 83.71875 C 69.378906 85.460938 69.421875 85.851562 69.46875 100.953125 C 69.511719 118.878906 69.207031 123.96875 67.945312 126.796875 C 66.941406 129.105469 65.898438 129.671875 62.71875 129.671875 C 60.023438 129.671875 58.585938 128.582031 57.976562 126.101562 C 57.234375 123.054688 56.886719 106.652344 57.410156 96.425781 C 57.933594 85.546875 58.628906 82.152344 60.457031 81.152344 C 62.023438 80.28125 65.898438 80.324219 66.8125 81.195312 Z M 66.8125 81.195312 "/>
<path style=" stroke:none;fill-rule:nonzero;fill:rgb(100%,100%,100%);fill-opacity:1;" d="M 42.871094 82.71875 C 41.652344 83.9375 39.476562 85.808594 37.996094 86.898438 C 35.34375 88.8125 34.167969 90.03125 36.34375 88.59375 C 37.691406 87.722656 39 88.027344 39.433594 89.332031 C 39.824219 90.507812 39.738281 126.40625 39.347656 127.582031 C 39.214844 128.058594 38.476562 128.800781 37.738281 129.277344 L 36.34375 130.105469 L 50.707031 130.105469 L 49.316406 129.234375 C 48.574219 128.800781 47.703125 127.972656 47.398438 127.40625 C 47.007812 126.667969 46.832031 120.792969 46.832031 103.5625 C 46.789062 81.066406 46.789062 80.71875 45.917969 80.585938 C 45.355469 80.5 44.308594 81.238281 42.871094 82.71875 Z M 42.871094 82.71875 "/>
<path style=" stroke:none;fill-rule:nonzero;fill:rgb(10%,50%,100%);fill-opacity:1;" d="M 271.425781 131.238281 C 268.640625 132.238281 266.941406 133.5 265.550781 135.632812 C 264.070312 137.851562 263.851562 139.503906 264.851562 141.417969 C 266.636719 144.855469 272.339844 144.640625 273.992188 141.113281 C 275.429688 138.15625 274.035156 135.285156 270.730469 134.328125 L 268.769531 133.761719 L 269.945312 132.976562 C 271.554688 131.933594 273.863281 131.453125 277.128906 131.410156 C 283.265625 131.410156 285.222656 133.542969 285.265625 140.546875 C 285.265625 143.726562 285.09375 145.03125 284.484375 146.207031 C 283.222656 148.640625 281.609375 150.035156 279.261719 150.816406 C 276.996094 151.601562 274.082031 153.210938 273.558594 154.039062 C 273.425781 154.253906 273.601562 154.601562 273.992188 154.734375 C 274.472656 154.90625 275.210938 154.515625 276.125 153.644531 C 278.78125 151.035156 282.4375 152.078125 284.046875 155.867188 C 285.179688 158.605469 285.441406 168.398438 284.484375 172.488281 C 283.175781 178.101562 281.347656 179.449219 275.082031 179.492188 C 270.25 179.492188 267.335938 178.578125 265.941406 176.664062 C 264.722656 174.96875 264.808594 174.402344 266.203125 174.925781 C 268.03125 175.621094 271.597656 174.578125 272.601562 173.007812 C 273.730469 171.3125 273.90625 169.441406 273.078125 167.699219 C 271.292969 164.003906 266.59375 163.4375 263.328125 166.613281 C 262.460938 167.441406 261.414062 170.398438 261.5 171.746094 C 261.589844 173.183594 264.027344 176.839844 265.636719 178.058594 C 271.773438 182.714844 286.398438 180.886719 291.316406 174.835938 C 294.058594 171.441406 294.449219 170.355469 294.449219 165.785156 C 294.449219 162.132812 294.320312 161.347656 293.230469 159.214844 C 291.097656 154.863281 287.878906 152.601562 282.261719 151.644531 L 280.523438 151.339844 L 283.175781 150.558594 C 290.621094 148.425781 293.363281 145.988281 293.363281 141.507812 C 293.363281 136.894531 289.621094 133.0625 283.394531 131.238281 C 280.433594 130.367188 273.777344 130.367188 271.425781 131.238281 Z M 271.425781 131.238281 "/>
<path style=" stroke:none;fill-rule:nonzero;fill:rgb(0%,0%,0%);fill-opacity:1;" d="M 304.546875 132.714844 C 304.679688 133.195312 304.851562 133.585938 304.941406 133.585938 C 305.027344 133.585938 305.113281 133.195312 305.113281 132.714844 C 305.113281 132.238281 304.941406 131.847656 304.722656 131.847656 C 304.503906 131.847656 304.417969 132.238281 304.546875 132.714844 Z M 304.546875 132.714844 "/>
<path style=" stroke:none;fill-rule:nonzero;fill:rgb(0%,0%,0%);fill-opacity:1;" d="M 305.15625 135.152344 C 305.203125 135.847656 305.375 136.894531 305.550781 137.503906 C 305.8125 138.242188 305.855469 137.894531 305.679688 136.414062 C 305.417969 133.976562 305.070312 133.195312 305.15625 135.152344 Z M 305.15625 135.152344 "/>
<path style=" stroke:none;fill-rule:nonzero;fill:rgb(0%,0%,0%);fill-opacity:1;" d="M 306.070312 140.984375 C 306.070312 141.59375 306.160156 141.808594 306.289062 141.507812 C 306.375 141.246094 306.375 140.722656 306.289062 140.417969 C 306.160156 140.15625 306.070312 140.375 306.070312 140.984375 Z M 306.070312 140.984375 "/>
<path style=" stroke:none;fill-rule:nonzero;fill:rgb(10%,50%,100%);fill-opacity:1;" d="M 37.738281 142.289062 C 33.601562 143.332031 30.859375 145.507812 28.988281 149.25 C 26.941406 153.339844 26.246094 157.476562 26.855469 162.042969 C 27.726562 168.964844 30.335938 173.183594 35.515625 176.054688 C 37.996094 177.449219 38.605469 177.578125 40.175781 177.359375 C 42.4375 177.011719 44.789062 175.445312 45.832031 173.664062 C 46.878906 171.878906 46.179688 171.921875 45.050781 173.75 C 43.917969 175.535156 40.523438 177.011719 38.867188 176.402344 C 37.433594 175.882812 36.167969 174.226562 35.648438 172.050781 C 34.949219 169.3125 34.691406 156.429688 35.210938 151.253906 C 35.820312 145.117188 36.734375 143.332031 39.476562 142.898438 C 43.570312 142.289062 45.660156 143.550781 46.832031 147.335938 C 48.226562 151.773438 48.574219 175.445312 47.398438 183.714844 C 46.878906 187.457031 46.484375 188.414062 44.875 190.023438 C 42.175781 192.765625 35.734375 193.027344 33.644531 190.546875 C 33.210938 189.980469 33.425781 189.804688 35.082031 189.371094 C 37.867188 188.632812 38.824219 186.933594 38.605469 183.234375 C 38.476562 180.710938 38.347656 180.363281 36.996094 179.277344 C 32.90625 175.925781 27.421875 178.578125 27.421875 183.886719 C 27.421875 187.890625 30.597656 191.371094 35.386719 192.632812 C 37.824219 193.285156 38.605469 193.332031 40.738281 192.851562 C 46.398438 191.675781 50.664062 188.066406 53.492188 182.191406 C 55.972656 176.96875 56.367188 174.878906 56.367188 166.65625 C 56.367188 158.738281 55.667969 155.210938 53.144531 150.207031 C 50.011719 144.03125 43.699219 140.808594 37.738281 142.289062 Z M 37.738281 142.289062 "/>
<path style=" stroke:none;fill-rule:nonzero;fill:rgb(0%,0%,0%);fill-opacity:1;" d="M 305.984375 142.722656 C 305.984375 142.941406 306.203125 143.160156 306.464844 143.160156 C 306.679688 143.160156 306.769531 142.941406 306.636719 142.722656 C 306.507812 142.464844 306.289062 142.289062 306.160156 142.289062 C 306.070312 142.289062 305.984375 142.464844 305.984375 142.722656 Z M 305.984375 142.722656 "/>
<path style=" stroke:none;fill-rule:nonzero;fill:rgb(0%,0%,0%);fill-opacity:1;" d="M 306.984375 171.226562 C 306.984375 172.660156 307.074219 173.183594 307.160156 172.402344 C 307.246094 171.617188 307.246094 170.441406 307.160156 169.789062 C 307.074219 169.136719 306.984375 169.789062 306.984375 171.226562 Z M 306.984375 171.226562 "/>
<path style=" stroke:none;fill-rule:nonzero;fill:rgb(100%,100%,100%);fill-opacity:1;" d="M 259.152344 200.25 C 256.800781 203.425781 254.667969 206.253906 254.40625 206.515625 C 253.625 207.429688 249.097656 213.304688 245.441406 218.21875 C 243.480469 220.832031 241.304688 223.660156 240.609375 224.441406 C 239.957031 225.226562 239.390625 226.097656 239.390625 226.355469 C 239.390625 226.707031 242.175781 226.75 249.402344 226.53125 L 259.457031 226.183594 L 259.152344 234.40625 C 258.847656 243.023438 258.5 244.546875 256.800781 244.546875 C 256.320312 244.546875 255.929688 244.71875 255.929688 244.980469 C 255.929688 245.503906 267.640625 245.589844 268.464844 245.066406 C 268.902344 244.761719 268.8125 244.457031 268.117188 243.546875 C 267.289062 242.5 267.246094 241.933594 267.335938 234.667969 L 267.464844 226.921875 L 269.117188 226.792969 C 270.03125 226.707031 271.078125 226.878906 271.425781 227.183594 C 272.339844 227.921875 273.777344 230.839844 273.777344 231.882812 C 273.777344 232.363281 273.949219 232.839844 274.167969 232.972656 C 274.339844 233.101562 274.515625 229.578125 274.558594 225.183594 C 274.558594 220.742188 274.429688 217.132812 274.253906 217.132812 C 274.035156 217.132812 273.777344 217.960938 273.6875 218.960938 C 273.558594 220.003906 273.035156 221.789062 272.46875 222.917969 L 271.46875 225.007812 L 269.46875 224.878906 L 267.464844 224.746094 L 267.421875 209.734375 L 267.335938 194.722656 L 265.375 194.59375 L 263.460938 194.460938 Z M 259.195312 223.09375 C 258.933594 224.484375 258.847656 224.53125 256.84375 224.53125 C 255.710938 224.53125 252.101562 224.660156 248.835938 224.835938 C 243.222656 225.09375 242.871094 225.050781 242.871094 224.3125 C 242.871094 223.441406 244.613281 220.699219 246.269531 218.871094 C 246.832031 218.265625 249.96875 214.171875 253.230469 209.820312 L 259.195312 201.816406 L 259.324219 211.78125 C 259.414062 217.21875 259.324219 222.355469 259.195312 223.09375 Z M 259.195312 223.09375 "/>
<path style=" stroke:none;fill-rule:nonzero;fill:rgb(100%,100%,100%);fill-opacity:1;" d="M 52.796875 199.292969 C 48.445312 200.207031 45.179688 202.425781 43.175781 205.777344 C 42.132812 207.601562 42.003906 208.167969 42.003906 211.910156 C 42.046875 216.523438 42.65625 218.003906 46.050781 221.875 L 47.746094 223.789062 L 45.222656 225.050781 C 40.785156 227.269531 38.605469 230.925781 38.5625 236.0625 C 38.519531 239.5 39 240.628906 42.175781 244.851562 C 44.308594 247.722656 45.308594 248.375 49.402344 249.8125 C 58.804688 253.03125 69.25 247.765625 71.992188 238.410156 C 72.90625 235.40625 72.863281 233.40625 71.859375 231.1875 C 70.730469 228.75 67.726562 224.835938 65.898438 223.441406 C 64.113281 222.09375 64.070312 221.527344 65.550781 220.136719 C 68.335938 217.523438 70.207031 210.867188 69.207031 207.082031 C 68.507812 204.601562 64.941406 201.074219 62.023438 200.074219 C 59.28125 199.117188 55.191406 198.769531 52.796875 199.292969 Z M 59.761719 200.378906 C 62.894531 201.207031 64.242188 202.078125 65.507812 204.078125 C 67.726562 207.558594 67.550781 211.648438 64.984375 216.394531 C 63.460938 219.132812 62.285156 219.917969 60.28125 219.570312 C 56.0625 218.742188 50.273438 214.914062 48.707031 211.867188 C 47.488281 209.429688 47.488281 205.949219 48.792969 203.644531 C 50.835938 200.074219 54.40625 198.988281 59.761719 200.378906 Z M 54.101562 226.445312 C 59.28125 228.273438 62.71875 230.492188 64.289062 232.882812 C 65.332031 234.496094 65.507812 235.191406 65.460938 237.886719 C 65.460938 240.585938 65.246094 241.414062 63.984375 243.9375 C 61.980469 247.808594 59.804688 249.417969 56.234375 249.679688 C 48.792969 250.203125 44.613281 247.027344 42.828125 239.542969 C 41.089844 232.101562 43.917969 225.007812 48.574219 224.964844 C 49.359375 224.964844 51.796875 225.617188 54.101562 226.445312 Z M 54.101562 226.445312 "/>
<path style=" stroke:none;fill-rule:nonzero;fill:rgb(100%,100%,100%);fill-opacity:1;" d="M 94.40625 240.324219 C 93.320312 240.628906 91.707031 241.324219 90.835938 241.847656 C 89.574219 242.585938 89.226562 242.632812 89.226562 242.152344 C 89.226562 241.804688 88.964844 241.5 88.660156 241.5 C 88.269531 241.5 88.097656 242.761719 88.050781 246.375 C 88.050781 249.070312 87.792969 251.8125 87.53125 252.464844 C 86.921875 254.074219 87.53125 254.03125 88.445312 252.378906 C 89.402344 250.726562 91.664062 249.332031 93.449219 249.332031 C 94.234375 249.332031 95.886719 249.765625 97.148438 250.246094 C 100.675781 251.683594 101.894531 251.941406 104.242188 251.988281 C 108.160156 252.074219 111.511719 249.898438 113.035156 246.328125 C 113.515625 245.199219 113.777344 244.980469 114.167969 245.371094 C 114.558594 245.765625 114.210938 246.808594 112.644531 249.898438 C 111.035156 253.03125 109.597656 254.988281 105.984375 258.863281 C 98.933594 266.433594 95.972656 271.046875 94.058594 277.398438 C 93.144531 280.53125 91.839844 288.449219 92.144531 289.015625 C 92.316406 289.363281 104.027344 289.496094 104.027344 289.191406 C 104.027344 289.058594 103.808594 288.449219 103.546875 287.753906 C 102.9375 286.144531 102.9375 278.921875 103.589844 275.398438 C 104.375 271.089844 106.8125 264.996094 110.164062 259.210938 C 111.816406 256.292969 113.425781 253.117188 113.777344 252.160156 C 114.082031 251.203125 114.601562 249.722656 114.90625 248.898438 C 115.648438 246.851562 116.167969 240.976562 115.648438 240.324219 C 115.082031 239.585938 114.644531 239.933594 113.777344 241.761719 C 112.296875 244.894531 109.511719 244.980469 104.289062 242.152344 C 100.28125 240.019531 97.496094 239.5 94.40625 240.324219 Z M 94.40625 240.324219 "/>
<path style=" stroke:none;fill-rule:nonzero;fill:rgb(100%,100%,100%);fill-opacity:1;" d="M 232.207031 241.542969 C 231.773438 242.847656 229.421875 244.109375 227.421875 244.109375 C 226.421875 244.109375 224.460938 243.675781 223.070312 243.195312 C 221.546875 242.632812 218.933594 242.152344 216.929688 242.023438 C 213.839844 241.847656 213.101562 241.980469 211.359375 242.847656 C 209.402344 243.804688 209.359375 243.804688 208.707031 242.980469 C 207.964844 241.980469 208.007812 241.414062 208.097656 250.203125 C 208.140625 254.164062 208.183594 259.472656 208.226562 262.039062 C 208.269531 267.433594 208.792969 268.566406 210.011719 265.867188 C 211.535156 262.472656 215.191406 260.082031 218.933594 260.035156 C 224.851562 259.992188 226.636719 263.824219 226.203125 275.65625 C 226.027344 280.878906 225.765625 282.707031 225.027344 284.707031 C 223.285156 289.363281 220.328125 291.28125 215.015625 291.191406 C 212.144531 291.148438 210.621094 290.625 209.402344 289.320312 C 208.226562 288.058594 208.226562 287.582031 209.488281 287.667969 C 211.925781 287.886719 212.96875 287.582031 214.40625 286.144531 C 215.757812 284.796875 215.886719 284.449219 215.886719 282.054688 C 215.886719 280.054688 215.667969 279.183594 214.929688 278.269531 C 211.839844 274.308594 205.964844 276.136719 205.179688 281.316406 C 204.222656 287.753906 207.964844 291.886719 215.058594 292.324219 C 217.714844 292.496094 218.976562 292.324219 221.371094 291.539062 C 227.726562 289.453125 231.207031 286.796875 233.339844 282.535156 C 234.253906 280.664062 234.386719 279.878906 234.386719 275.003906 C 234.386719 270.132812 234.253906 269.347656 233.339844 267.433594 C 231.859375 264.429688 229.378906 262.125 225.984375 260.515625 C 220.414062 257.90625 215.101562 258.515625 211.316406 262.167969 L 209.359375 264.082031 L 209.316406 261.386719 C 209.226562 253.902344 209.359375 252.640625 210.273438 251.855469 C 211.75 250.59375 213.839844 250.507812 219.0625 251.378906 C 224.59375 252.335938 226.726562 252.074219 229.207031 250.332031 C 230.773438 249.203125 232.773438 245.285156 233.167969 242.585938 C 233.425781 240.542969 232.730469 239.804688 232.207031 241.542969 Z M 232.207031 241.542969 "/>
<path style=" stroke:none;fill-rule:nonzero;fill:rgb(10%,50%,100%);fill-opacity:1;" d="M 155.605469 256.902344 C 149.292969 258.90625 145.722656 263.167969 143.589844 271.308594 C 142.414062 275.789062 142.328125 284.40625 143.417969 289.582031 C 146.117188 302.59375 155.386719 309.207031 164.441406 304.636719 C 167.660156 303.027344 170.707031 299.9375 172.230469 296.761719 C 173.230469 294.671875 173.40625 293.847656 173.363281 290.015625 C 173.363281 286.101562 173.230469 285.363281 172.054688 282.792969 C 170.488281 279.398438 168.140625 276.875 165.265625 275.527344 C 160.128906 273.132812 156.429688 273.4375 153.382812 276.617188 L 151.46875 278.574219 L 151.46875 274.484375 C 151.46875 269.132812 152.207031 263.472656 153.167969 261.296875 C 154.515625 258.339844 155.863281 257.425781 159.261719 257.25 C 161.914062 257.078125 162.308594 257.164062 163.570312 258.253906 C 165.265625 259.6875 165.398438 260.644531 163.875 260.644531 C 162.394531 260.644531 160.738281 262.34375 160.390625 264.171875 C 159.738281 267.738281 162.65625 271.4375 165.789062 270.914062 C 170.226562 270.21875 171.707031 263.777344 168.3125 259.90625 C 165.484375 256.6875 160.21875 255.46875 155.605469 256.902344 Z M 163.046875 276.441406 C 166.574219 280.53125 166.703125 299.023438 163.308594 303.113281 C 162.132812 304.507812 160.871094 305.03125 158.519531 305.03125 C 155.472656 305.03125 153.730469 303.722656 152.644531 300.679688 C 151.992188 298.851562 151.730469 296.632812 151.597656 291.539062 C 151.25 281.835938 152.207031 278.09375 155.558594 276.050781 C 158.042969 274.527344 161.566406 274.746094 163.046875 276.441406 Z M 163.046875 276.441406 "/>
</g>
</svg>
